<?xml version="1.0" encoding="UTF-8"?>
<svg version="1.1" xmlns="http://www.w3.org/2000/svg" width="200" height="200">
<path d="M0 0 C3.21188106 1.20125044 5.97750267 2.49753652 8.7890625 4.45703125 C9.9193689 5.23699463 9.9193689 5.23699463 11.07250977 6.03271484 C11.91483154 6.62004395 12.75715332 7.20737305 13.625 7.8125 C15.60452297 9.17715419 17.58508978 10.54029482 19.56640625 11.90234375 C20.12386032 12.28602112 20.68131439 12.66969849 21.25566101 13.06500244 C29.06477256 18.43197514 36.93125305 23.71440653 44.79031372 29.0078125 C49.44173447 32.14074579 54.09189542 35.275548 58.7421875 38.41015625 C59.6726741 39.03729523 60.60316071 39.6644342 61.56184387 40.31057739 C71.44207729 46.97046342 81.31540208 53.64056268 91.1875 60.3125 C91.99824982 60.86041199 92.80899963 61.40832397 93.64431763 61.97283936 C98.09638983 64.9816295 102.5482868 67.99067872 107 71 C106.22206418 75.54002204 104.77237777 78.18924168 102.125 82 C101.20137101 83.34906123 100.27966678 84.69944127 99.359375 86.05078125 C98.83150391 86.82373535 98.30363281 87.59668945 97.75976562 88.39306641 C94.63756611 93.01832257 91.60365086 97.70167519 88.5562439 102.37637329 C76.83957446 120.34080301 64.91981269 138.17001699 53 156 C50.07601816 154.60169387 47.38818319 153.01870415 44.68139648 151.23779297 C43.83629013 150.68316376 42.99118378 150.12853455 42.12046814 149.55709839 C41.21317459 148.9581778 40.30588104 148.3592572 39.37109375 147.7421875 C37.95377708 146.80936447 37.95377708 146.80936447 36.50782776 145.85769653 C34.50571004 144.53904996 32.5043402 143.21926728 30.50366211 141.8984375 C27.47548473 139.90006708 24.44398047 137.90682307 21.41210938 135.9140625 C13.12888567 130.45880088 4.87586489 125.01621549 -3.08569336 119.09716797 C-10.56489718 113.71504844 -18.32275491 108.71838149 -26 103.625 C-27.80352965 102.42599818 -29.60691617 101.22678103 -31.41015625 100.02734375 C-35.34967944 97.40749294 -39.29054563 94.78967756 -43.23266602 92.17373657 C-44.82294813 91.11758516 -46.4115785 90.05894767 -48 89 C-48.38502686 90.0664978 -48.38502686 90.0664978 -48.77783203 91.15454102 C-50.09357232 94.21785565 -51.69172261 96.76365403 -53.5546875 99.52734375 C-54.25207031 100.56697266 -54.94945312 101.60660156 -55.66796875 102.67773438 C-56.39628906 103.75345703 -57.12460937 104.82917969 -57.875 105.9375 C-58.59558594 107.00935547 -59.31617188 108.08121094 -60.05859375 109.18554688 C-61.40657687 111.19014424 -62.75645827 113.19346741 -64.10888672 115.19506836 C-64.7329541 116.1206958 -65.35702148 117.04632324 -66 118 C-66.71921631 119.04784668 -67.43843262 120.09569336 -68.17944336 121.17529297 C-70.09501179 123.8900511 -70.09501179 123.8900511 -70.94921875 126.85546875 C-72.35139178 131.05156276 -74.49535299 134.56206617 -76.8125 138.3125 C-77.23853516 139.04017578 -77.66457031 139.76785156 -78.10351562 140.51757812 C-81.30344839 145.71202269 -81.30344839 145.71202269 -84.6171875 147.08203125 C-88.35523629 146.95334432 -90.24976381 145.43044129 -93 143 C-93.61829255 140.30110394 -93.32792031 138.62185751 -92.03881836 136.17724609 C-90.69287843 134.06733834 -89.2729435 132.03224744 -87.8125 130 C-87.32974609 129.30132812 -86.84699219 128.60265625 -86.34960938 127.8828125 C-84.233128 124.87144302 -82.19741198 122.1931727 -79.55566406 119.6081543 C-77.02580694 117.02633698 -75.16574623 114.49231272 -73.21484375 111.45703125 C-72.52616211 110.39339355 -71.83748047 109.32975586 -71.12792969 108.23388672 C-70.39778192 107.09342738 -69.6676388 105.95296507 -68.9375 104.8125 C-67.78524268 103.02843694 -66.63076688 101.24582174 -65.47628784 99.4631958 C-64.70970729 98.2790582 -63.94385539 97.09444856 -63.17874146 95.90936279 C-60.24604766 91.36801872 -57.26428017 86.86242873 -54.25 82.375 C-48.80345117 74.2415509 -43.43040775 66.0604488 -38.0625 57.875 C-37.61877045 57.19837311 -37.17504089 56.52174622 -36.71786499 55.82461548 C-34.42345243 52.32558323 -32.129561 48.82620968 -29.8359375 45.32666016 C-25.53683636 38.76733152 -21.23548555 32.2094791 -16.93331909 25.65216064 C-15.59789472 23.6164553 -14.26291514 21.58045881 -12.92797852 19.54443359 C-8.64393601 13.01267247 -4.34879038 6.48893028 0 0 Z " fill="#B10909" transform="translate(93,22)"/>
<path d="M0 0 C4.09641614 1.43002164 7.1515041 3.41507282 10.625 6 C18.05143902 11.44125811 25.70796504 16.53245654 33.375 21.625 C34.30714325 22.2444751 34.30714325 22.2444751 35.25811768 22.87646484 C38.83669565 25.2540755 42.41742512 27.62841451 46 30 C42.93192133 35.68518478 39.69667491 41.15985706 36.0625 46.5 C35.6308252 47.14074463 35.19915039 47.78148926 34.75439453 48.44165039 C33.89929274 49.71086713 33.04289444 50.97921157 32.18505859 52.24658203 C30.5702087 54.63592112 28.97204847 57.0362371 27.375 59.4375 C26.58333333 60.625 25.79166667 61.8125 25 63 C21.55896663 61.72368257 18.62782536 60.24732513 15.5859375 58.19921875 C14.7508667 57.64016846 13.9157959 57.08111816 13.05541992 56.50512695 C12.17088135 55.90531006 11.28634277 55.30549316 10.375 54.6875 C9.46016846 54.07028076 8.54533691 53.45306152 7.6027832 52.81713867 C5.69404457 51.5280799 3.78659144 50.23711577 1.88037109 48.94433594 C-0.93734538 47.04229372 -3.76917049 45.16325077 -6.60546875 43.2890625 C-8.34143178 42.13063672 -10.07712058 40.97179988 -11.8125 39.8125 C-12.63637207 39.27262451 -13.46024414 38.73274902 -14.30908203 38.17651367 C-15.05915527 37.67095947 -15.80922852 37.16540527 -16.58203125 36.64453125 C-17.57553589 35.98481323 -17.57553589 35.98481323 -18.58911133 35.31176758 C-19.05470459 34.87888428 -19.52029785 34.44600098 -20 34 C-20 30.75124638 -19.63842658 30.08167259 -17.91015625 27.48046875 C-17.45938721 26.7939624 -17.00861816 26.10745605 -16.54418945 25.40014648 C-16.05523193 24.66997314 -15.56627441 23.9397998 -15.0625 23.1875 C-14.05702207 21.66163595 -13.05181827 20.13559123 -12.046875 18.609375 C-11.53833984 17.84173828 -11.02980469 17.07410156 -10.50585938 16.28320312 C-8.24425266 12.85412628 -6.02745841 9.39681707 -3.8125 5.9375 C-3.06913793 4.77986602 -2.32566148 3.62230549 -1.58203125 2.46484375 C-1.05996094 1.65144531 -0.53789063 0.83804688 0 0 Z " fill="#E2E43B" transform="translate(95,36)"/>
<path d="M0 0 C7.16769381 3.73700275 13.72225887 8.1451626 20.3125 12.8125 C27.49603377 17.87729004 34.67377659 22.84975303 42.18359375 27.421875 C42.78300781 27.94265625 43.38242188 28.4634375 44 29 C44 33.36078889 43.43466903 34.37865282 41.1484375 37.921875 C40.54386719 38.86546875 39.93929687 39.8090625 39.31640625 40.78125 C38.67574219 41.7609375 38.03507812 42.740625 37.375 43.75 C36.75753906 44.71421875 36.14007813 45.6784375 35.50390625 46.671875 C31.88039485 52.28641056 28.10205779 57.72456731 24 63 C19.23162132 61.41967527 15.63134183 58.74436407 11.625 55.8125 C0.99960751 48.16269522 -9.99642328 41.08967027 -21 34 C-20.35224124 30.37772036 -18.80938711 27.88055015 -16.796875 24.82421875 C-16.14589844 23.83099609 -15.49492188 22.83777344 -14.82421875 21.81445312 C-13.79748047 20.26661133 -13.79748047 20.26661133 -12.75 18.6875 C-11.74646484 17.15706055 -11.74646484 17.15706055 -10.72265625 15.59570312 C-7.2502965 10.31894426 -3.71707481 5.10737605 0 0 Z " fill="#E2E43B" transform="translate(119,101)"/>
</svg>
